<svg width="21" height="21" viewBox="0 0 21 21" fill="none" xmlns="http://www.w3.org/2000/svg">
<path d="M1 1.875C1 1.52982 1.27982 1.25 1.625 1.25H3.5C3.78679 1.25 4.03678 1.44519 4.10634 1.72342L4.61298 3.75H19.125C19.3109 3.75 19.4872 3.83278 19.6059 3.97585C19.7247 4.11893 19.7736 4.30744 19.7393 4.49018L17.8643 14.4902C17.8089 14.7858 17.5508 15 17.25 15H16H7.25H6C5.69924 15 5.44113 14.7858 5.3857 14.4902L3.51414 4.5085L3.01201 2.5H1.625C1.27982 2.5 1 2.22018 1 1.875ZM4.87808 5L6.5187 13.75H16.7313L18.3719 5H4.87808ZM7.25 15C5.86929 15 4.75 16.1193 4.75 17.5C4.75 18.8807 5.86929 20 7.25 20C8.63071 20 9.75 18.8807 9.75 17.5C9.75 16.1193 8.63071 15 7.25 15ZM16 15C14.6193 15 13.5 16.1193 13.5 17.5C13.5 18.8807 14.6193 20 16 20C17.3807 20 18.5 18.8807 18.5 17.5C18.5 16.1193 17.3807 15 16 15ZM7.25 16.25C7.94036 16.25 8.5 16.8096 8.5 17.5C8.5 18.1904 7.94036 18.75 7.25 18.75C6.55964 18.75 6 18.1904 6 17.5C6 16.8096 6.55964 16.25 7.25 16.25ZM16 16.25C16.6904 16.25 17.25 16.8096 17.25 17.5C17.25 18.1904 16.6904 18.75 16 18.75C15.3096 18.75 14.75 18.1904 14.75 17.5C14.75 16.8096 15.3096 16.25 16 16.25Z" fill="#171717"/>
<path d="M16 15H17.25C17.5508 15 17.8089 14.7858 17.8643 14.4902L19.7393 4.49018C19.7736 4.30744 19.7247 4.11893 19.6059 3.97585C19.4872 3.83278 19.3109 3.75 19.125 3.75H4.61298L4.10634 1.72342C4.03678 1.44519 3.78679 1.25 3.5 1.25H1.625C1.27982 1.25 1 1.52982 1 1.875C1 2.22018 1.27982 2.5 1.625 2.5H3.01201L3.51414 4.5085L5.3857 14.4902C5.44113 14.7858 5.69924 15 6 15H7.25M16 15H7.25M16 15C14.6193 15 13.5 16.1193 13.5 17.5C13.5 18.8807 14.6193 20 16 20C17.3807 20 18.5 18.8807 18.5 17.5C18.5 16.1193 17.3807 15 16 15ZM7.25 15C5.86929 15 4.75 16.1193 4.75 17.5C4.75 18.8807 5.86929 20 7.25 20C8.63071 20 9.75 18.8807 9.75 17.5C9.75 16.1193 8.63071 15 7.25 15ZM6.5187 13.75L4.87808 5H18.3719L16.7313 13.75H6.5187ZM6 17.5C6 16.8096 6.55964 16.25 7.25 16.25C7.94036 16.25 8.5 16.8096 8.5 17.5C8.5 18.1904 7.94036 18.75 7.25 18.75C6.55964 18.75 6 18.1904 6 17.5ZM14.75 17.5C14.75 16.8096 15.3096 16.25 16 16.25C16.6904 16.25 17.25 16.8096 17.25 17.5C17.25 18.1904 16.6904 18.75 16 18.75C15.3096 18.75 14.75 18.1904 14.75 17.5Z" stroke="#171717" stroke-width="0.5" stroke-linejoin="round"/>
</svg>
