<svg width="14" height="14" viewBox="0 0 14 14" fill="none" xmlns="http://www.w3.org/2000/svg">
<path d="M7 13.125C3.61726 13.125 0.875 10.3827 0.875 7C0.875 3.61726 3.61726 0.875 7 0.875C10.3827 0.875 13.125 3.61726 13.125 7C13.125 10.3827 10.3827 13.125 7 13.125ZM7 14C10.866 14 14 10.866 14 7C14 3.13401 10.866 0 7 0C3.13401 0 0 3.13401 0 7C0 10.866 3.13401 14 7 14Z" fill="#555555"/>
<path d="M6.12635 9.625C6.12635 9.14175 6.5181 8.75 7.00135 8.75C7.4846 8.75 7.87635 9.14175 7.87635 9.625C7.87635 10.1082 7.4846 10.5 7.00135 10.5C6.5181 10.5 6.12635 10.1082 6.12635 9.625Z" fill="#555555"/>
<path d="M6.21207 4.37066C6.16545 3.9045 6.53152 3.5 7 3.5C7.46848 3.5 7.83455 3.9045 7.78793 4.37066L7.48103 7.43967C7.45632 7.6868 7.24836 7.875 7 7.875C6.75164 7.875 6.54368 7.6868 6.51897 7.43967L6.21207 4.37066Z" fill="#555555"/>
</svg>
