<svg width="21" height="21" viewBox="0 0 21 21" fill="none" xmlns="http://www.w3.org/2000/svg">
<g clip-path="url(#clip0_295_5925)">
<path d="M20.7952 10.7418C20.7952 10.0281 20.7374 9.31046 20.6139 8.60828H10.71V12.6516H16.3815C16.1461 13.9557 15.3899 15.1093 14.2826 15.8423V18.4659H17.6662C19.6532 16.6371 20.7952 13.9364 20.7952 10.7418Z" fill="#4285F4"/>
<path d="M10.71 21.0007C13.5419 21.0007 15.9301 20.0709 17.6701 18.4659L14.2865 15.8424C13.3451 16.4828 12.1298 16.8455 10.7138 16.8455C7.97453 16.8455 5.65191 14.9974 4.81855 12.5128H1.3269V15.2173C3.10938 18.763 6.73991 21.0007 10.71 21.0007V21.0007Z" fill="#34A853"/>
<path d="M4.81468 12.5127C4.37485 11.2087 4.37485 9.7966 4.81468 8.49254V5.78796H1.3269C-0.162352 8.75489 -0.162352 12.2504 1.3269 15.2173L4.81468 12.5127V12.5127Z" fill="#FBBC04"/>
<path d="M10.71 4.15595C12.2069 4.1328 13.6537 4.6961 14.7379 5.73008L17.7357 2.73229C15.8375 0.949817 13.3181 -0.0301577 10.71 0.000707583C6.73991 0.000707583 3.10938 2.23844 1.3269 5.78796L4.81469 8.49253C5.64419 6.00401 7.97067 4.15595 10.71 4.15595V4.15595Z" fill="#EA4335"/>
</g>
<defs>
<clipPath id="clip0_295_5925">
<rect width="21" height="21" fill="white"/>
</clipPath>
</defs>
</svg>
