<svg width="16" height="16" viewBox="0 0 16 16" fill="none" xmlns="http://www.w3.org/2000/svg">
<path d="M4.71488 6.54257L3.34312 7.91432C2.17155 9.0859 2.17155 10.9854 3.34312 12.157C4.51469 13.3285 6.41419 13.3285 7.58576 12.157L9.41419 10.3285C10.5858 9.15697 10.5858 7.25747 9.41419 6.0859C9.16625 5.83796 8.88572 5.64249 8.58638 5.4995L7.99998 6.0859C7.939 6.14688 7.88754 6.21377 7.8456 6.28473C8.16104 6.37512 8.45862 6.54454 8.70708 6.793C9.48813 7.57405 9.48813 8.84038 8.70708 9.62143L6.87866 11.4499C6.09761 12.2309 4.83128 12.2309 4.05023 11.4499C3.26918 10.6688 3.26918 9.40248 4.05023 8.62143L4.84283 7.82883C4.73064 7.4087 4.68799 6.97387 4.71488 6.54257Z" fill="white"/>
<path d="M6.58576 4.67168C5.41419 5.84326 5.41419 7.74275 6.58576 8.91432C6.8337 9.16226 7.11424 9.35773 7.41358 9.50072L8.18917 8.72513C7.86083 8.63744 7.55046 8.46481 7.29287 8.20722C6.51182 7.42617 6.51182 6.15984 7.29287 5.37879L9.1213 3.55036C9.90235 2.76931 11.1687 2.76931 11.9497 3.55036C12.7308 4.33141 12.7308 5.59774 11.9497 6.37879L11.1571 7.1714C11.2693 7.59152 11.312 8.02635 11.2851 8.45766L12.6568 7.0859C13.8284 5.91432 13.8284 4.01483 12.6568 2.84326C11.4853 1.67168 9.58576 1.67168 8.41419 2.84326L6.58576 4.67168Z" fill="white"/>
</svg>
