<svg width="26" height="17" viewBox="0 0 26 17" fill="none" xmlns="http://www.w3.org/2000/svg">
<path d="M14.3275 0.57452C14.9284 -0.191507 15.9025 -0.191507 16.5034 0.57452C17.0968 1.33115 17.1041 2.55213 16.5252 3.32016L8.33568 16.3716C8.32386 16.3904 8.31124 16.4084 8.29786 16.4255C7.69702 17.1915 6.72288 17.1915 6.12204 16.4255L0.69318 9.504C0.092345 8.73797 0.0923451 7.496 0.69318 6.72997C1.29401 5.96394 2.26816 5.96394 2.86899 6.72997L7.16359 12.2053L14.2867 0.633197C14.2994 0.612615 14.313 0.593021 14.3275 0.57452Z" fill="#1DC078"/>
<path d="M12.4394 14.0182L14.3276 16.4255C14.9284 17.1915 15.9025 17.1915 16.5034 16.4255C16.5167 16.4084 16.5294 16.3904 16.5412 16.3716L24.7307 3.32016C25.3096 2.55213 25.3023 1.33115 24.7089 0.57452C24.108 -0.191507 23.1339 -0.191507 22.5331 0.57452C22.5185 0.593021 22.5049 0.612615 22.4923 0.633197L15.3691 12.2053L14.3735 10.936L12.4394 14.0182Z" fill="#1DC078"/>
</svg>
