<svg width="168" height="110" viewBox="0 0 168 110" fill="none" xmlns="http://www.w3.org/2000/svg">
<path d="M83.7418 110.003C129.991 110.003 167.484 104.18 167.484 96.9954C167.484 89.8114 129.991 83.9875 83.7418 83.9875C37.4925 83.9875 0 89.8114 0 96.9954C0 104.18 37.4925 110.003 83.7418 110.003Z" fill="#F4EFE9"/>
<path d="M104.327 99.5882H132.334C132.334 99.5882 128.483 89.07 119.393 89.3057C110.318 89.5414 104.312 99.5882 104.312 99.5882H104.327Z" fill="#DD8F3A"/>
<path d="M132.954 56.4102C136.82 75.5022 118.699 99.5734 118.699 99.5734H74.165C41.7012 99.5734 15.376 80.2457 15.376 56.4102C15.376 32.5746 41.6864 13.2322 74.165 13.2322C106.643 13.2322 128.232 33.0313 132.954 56.3954V56.4102Z" fill="#E9A959"/>
<path d="M132.954 56.4101C129.752 40.5885 118.803 26.4315 102.01 18.9185C89.482 22.5571 74.6962 31.7643 76.3637 52.3147C78.6509 80.4961 122.374 88.7899 125.133 89.2908C129.914 80.5255 135.226 67.6208 132.954 56.4101Z" fill="#F8DCC6"/>
<g style="mix-blend-mode:multiply" opacity="0.7">
<path d="M79.4772 53.5228C82.3694 69.256 102.645 80.7023 131.345 74.8539C133.205 68.7993 134.149 62.3616 132.939 56.3954C132.128 52.359 130.77 48.4551 128.984 44.7281C112.841 34.2098 92.4184 25.0615 92.4184 25.0615C92.4184 25.0615 76.7325 38.6734 79.4624 53.5228H79.4772Z" fill="#F8DCC6"/>
</g>
<path d="M77.6917 99.5733H35.7839C35.7839 99.5733 16.5122 76.0619 15.376 56.4395C14.2398 36.8172 47.8545 28.2287 64.6619 45.4056C81.4693 62.5826 72.468 84.3262 64.6619 91.1764C64.6619 91.1764 79.3591 91.3973 77.6769 99.5586L77.6917 99.5733Z" fill="#E9A959"/>
<path d="M64.6619 45.4058C77.854 57.7507 77.8097 78.9788 65.0603 91.6479L64.6619 90.5725C70.048 90.7493 79.551 92.4139 78.2377 99.6913C78.1786 99.9565 77.9425 100.148 77.6769 100.148C70.6972 100.148 63.7028 100.074 56.723 99.9712C49.7433 99.8975 42.7489 99.7502 35.7692 99.5734C49.7286 99.2051 63.7028 99.0284 77.6769 98.9989L77.1162 99.4556C78.1344 93.0621 69.2511 92.134 64.6472 91.7952C64.1012 91.7952 63.8503 91.0734 64.2487 90.7198C70.2841 85.0335 73.3829 76.4892 73.6927 68.269C74.0617 59.769 70.3431 51.6372 64.6619 45.4058Z" fill="#CC863A"/>
<path d="M88.0211 99.5882H116.028C116.028 99.5882 112.177 89.07 103.087 89.3057C94.0121 89.5414 88.0063 99.5882 88.0063 99.5882H88.0211Z" fill="#E9A959"/>
<path d="M88.0211 99.5881C97.347 99.0135 106.688 98.9104 116.028 98.9841L115.468 99.7943C114.45 97.1868 112.856 94.6678 110.834 92.6937C108.739 90.6902 106.024 89.4528 103.102 89.3055C106.083 89.0403 109.108 90.1305 111.38 92.0897C113.682 94.0638 115.423 96.5681 116.604 99.3818C116.766 99.7501 116.471 100.192 116.058 100.192C106.702 100.266 97.3618 100.177 88.0211 99.5881Z" fill="#CC863A"/>
<path d="M15.9958 52.3148C15.9958 52.3148 13.2954 79.5091 18.947 84.724C24.5987 89.9537 25.4545 77.6971 25.4545 77.6971L15.9958 52.3V52.3148Z" fill="#E9A959"/>
<path d="M79.4624 13.4384C77.7212 13.3206 75.9652 13.2322 74.1649 13.2322C43.4129 13.2322 17.9288 30.2176 15.3465 52.3148C14.2988 61.8461 15.3465 67.8713 15.3465 67.8713C24.5692 68.9909 37.658 67.7387 44.9328 60.697C59.2906 46.8052 53.1078 37.053 67.8935 33.1197C77.0572 30.6743 81.8825 20.8926 79.4624 13.4384Z" fill="#73432F"/>
<path d="M150.381 16.8413C150.381 16.8413 163.544 15.2798 164.444 8.00245C165.344 0.725091 153.273 -4.00372 144.892 4.70259L150.381 16.8413Z" fill="#E9A959"/>
<path d="M150.263 16.797C150.263 16.797 159.766 15.6627 160.415 10.4183C161.065 5.15917 152.344 1.7562 146.308 8.03181L150.278 16.797H150.263Z" fill="#FAC0BF"/>
<path d="M100.003 16.8413C100.003 16.8413 86.8406 15.2798 85.9405 8.00245C85.0403 0.725091 97.1109 -4.00372 105.492 4.70259L100.003 16.8413Z" fill="#73432F"/>
<path d="M100.121 16.7972C100.121 16.7972 90.6182 15.6629 89.9689 10.4185C89.3196 5.17405 98.0406 1.75634 104.076 8.03195L100.106 16.7972H100.121Z" fill="#FAC0BF"/>
<path d="M167.867 46.6284C165.713 30.4975 157.095 29.4221 156.225 18.8743C155.369 8.32658 142.841 0.371582 125.192 0.371582C107.544 0.371582 95.0156 8.32658 94.1597 18.8743C93.3038 29.4221 84.6714 30.4975 82.517 46.6284C80.3626 62.7594 103.618 69.256 125.192 69.256C144.788 69.256 170.022 62.7594 167.867 46.6284Z" fill="#F8DCC6"/>
<path d="M94.1597 18.8742C93.4514 27.4626 87.6079 29.7755 84.3025 39.0416C90.7952 42.1352 106.496 47.5269 116.279 36.1689C124.705 26.3872 125.059 10.0795 116.692 1.04907C103.648 3.17041 94.8827 10.1237 94.1597 18.8742Z" fill="#73432F"/>
<path d="M156.239 18.8742C156.948 27.4626 162.791 29.7755 166.096 39.0416C159.604 42.1352 143.903 47.5269 134.12 36.1689C125.694 26.3872 125.34 10.0795 133.706 1.04907C146.751 3.17041 155.516 10.1237 156.239 18.8742Z" fill="#E9A959"/>
<path d="M115.128 30.7477C115.128 32.7217 113.52 34.3275 111.543 34.3275C109.565 34.3275 107.957 32.7217 107.957 30.7477C107.957 28.7737 109.565 27.168 111.543 27.168C113.52 27.168 115.128 28.7737 115.128 30.7477Z" fill="#332A26"/>
<path d="M142.413 30.7477C142.413 32.7217 140.804 34.3275 138.827 34.3275C136.85 34.3275 135.241 32.7217 135.241 30.7477C135.241 28.7737 136.85 27.168 138.827 27.168C140.804 27.168 142.413 28.7737 142.413 30.7477Z" fill="#332A26"/>
<path d="M108.104 49.7662C108.104 49.7662 110.347 53.9352 114.523 53.4933C118.699 53.0513 123.584 48.2783 125.192 48.2783" stroke="#332A26" stroke-width="1.33" stroke-linecap="round" stroke-linejoin="round"/>
<path d="M142.28 49.7662C142.28 49.7662 140.037 53.9352 135.861 53.4933C131.685 53.0513 126.801 48.2783 125.192 48.2783" stroke="#332A26" stroke-width="1.33" stroke-linecap="round" stroke-linejoin="round"/>
<path d="M125.266 48.2784V38.6145" stroke="#332A26" stroke-width="1.33" stroke-linecap="round" stroke-linejoin="round"/>
<path d="M125.561 42.4593C125.561 42.4593 116.353 39.9255 117.548 36.0511C118.744 32.1767 131.286 32.1767 132.792 35.7565C134.282 39.3363 125.576 42.4593 125.576 42.4593H125.561Z" fill="#EDA6A6"/>
<path d="M106.821 25.0615C107.913 20.9661 114.125 19.9938 116.265 23.7209C112.723 22.8665 110.141 23.2348 106.821 25.0615Z" fill="#332A26"/>
<path d="M143.564 25.0614C140.243 23.2347 137.646 22.8664 134.12 23.7208C136.274 20.0085 142.486 20.9808 143.564 25.0614Z" fill="#332A26"/>
<path d="M136.2 40.5295C142.678 38.7765 149.26 37.4359 155.915 36.552C149.437 38.3198 142.855 39.6309 136.2 40.5295Z" fill="white"/>
<path d="M136.805 43.4316C146.028 42.9896 155.251 42.9896 164.473 43.4316C155.251 43.8735 146.028 43.8735 136.805 43.4316Z" fill="white"/>
<path d="M136.805 47.2766C144.405 47.8953 151.945 48.9413 159.427 50.4439C151.827 49.8252 144.287 48.7645 136.805 47.2766Z" fill="white"/>
<path d="M114.184 40.5295C107.529 39.6309 100.948 38.3198 94.4695 36.552C101.125 37.4359 107.706 38.7765 114.184 40.5295Z" fill="white"/>
<path d="M113.579 43.4316C104.356 43.8735 95.1336 43.8735 85.9109 43.4316C95.1336 42.9896 104.356 42.9896 113.579 43.4316Z" fill="white"/>
<path d="M113.579 47.2766C106.098 48.7645 98.5571 49.8252 90.9576 50.4439C98.439 48.956 105.979 47.8953 113.579 47.2766Z" fill="white"/>
</svg>
