<svg width="13" height="13" viewBox="0 0 13 13" fill="none" xmlns="http://www.w3.org/2000/svg">
<path d="M9.869 0.118988C10.0277 -0.0396626 10.2849 -0.0396626 10.4435 0.118988L12.881 2.55649C13.0397 2.71514 13.0397 2.97236 12.881 3.13101L4.75602 11.256C4.71712 11.2949 4.67072 11.3255 4.61964 11.3459L0.557139 12.9709C0.406251 13.0313 0.233913 12.9959 0.119 12.881C0.00408678 12.7661 -0.031287 12.5938 0.0290682 12.4429L1.65407 8.38037C1.6745 8.32929 1.7051 8.28289 1.744 8.24399L9.869 0.118988ZM9.10579 2.03125L10.9688 3.89423L12.0192 2.84375L10.1563 0.980775L9.10579 2.03125ZM10.3942 4.46875L8.53126 2.60577L3.25001 7.88702V8.125H3.65626C3.88063 8.125 4.06251 8.30688 4.06251 8.53125V8.9375H4.46876C4.69313 8.9375 4.87501 9.11938 4.87501 9.34375V9.75H5.11299L10.3942 4.46875ZM2.46323 8.67381L2.37749 8.75955L1.1355 11.8645L4.24046 10.6225L4.3262 10.5368C4.17216 10.479 4.06251 10.3305 4.06251 10.1562V9.75H3.65626C3.4319 9.75 3.25001 9.56812 3.25001 9.34375V8.9375H2.84376C2.66956 8.9375 2.52096 8.82785 2.46323 8.67381Z" fill="black"/>
</svg>
