<svg width="20" height="20" viewBox="0 0 20 20" fill="none" xmlns="http://www.w3.org/2000/svg">
<path d="M10 10C12.0711 10 13.75 8.32107 13.75 6.25C13.75 4.17893 12.0711 2.5 10 2.5C7.92893 2.5 6.25 4.17893 6.25 6.25C6.25 8.32107 7.92893 10 10 10ZM12.5 6.25C12.5 7.63071 11.3807 8.75 10 8.75C8.61929 8.75 7.5 7.63071 7.5 6.25C7.5 4.86929 8.61929 3.75 10 3.75C11.3807 3.75 12.5 4.86929 12.5 6.25Z" fill="#171717"/>
<path d="M17.5 16.25C17.5 17.5 16.25 17.5 16.25 17.5H3.75C3.75 17.5 2.5 17.5 2.5 16.25C2.5 15 3.75 11.25 10 11.25C16.25 11.25 17.5 15 17.5 16.25ZM16.25 16.2456C16.2482 15.9372 16.0578 15.0131 15.2099 14.1651C14.3945 13.3498 12.8614 12.5 9.99999 12.5C7.1386 12.5 5.60544 13.3498 4.79012 14.1651C3.94219 15.0131 3.75178 15.9372 3.75 16.2456H16.25Z" fill="#171717"/>
<path d="M10 10C12.0711 10 13.75 8.32107 13.75 6.25C13.75 4.17893 12.0711 2.5 10 2.5C7.92893 2.5 6.25 4.17893 6.25 6.25C6.25 8.32107 7.92893 10 10 10ZM12.5 6.25C12.5 7.63071 11.3807 8.75 10 8.75C8.61929 8.75 7.5 7.63071 7.5 6.25C7.5 4.86929 8.61929 3.75 10 3.75C11.3807 3.75 12.5 4.86929 12.5 6.25Z" stroke="#171717" stroke-width="0.5"/>
<path d="M17.5 16.25C17.5 17.5 16.25 17.5 16.25 17.5H3.75C3.75 17.5 2.5 17.5 2.5 16.25C2.5 15 3.75 11.25 10 11.25C16.25 11.25 17.5 15 17.5 16.25ZM16.25 16.2456C16.2482 15.9372 16.0578 15.0131 15.2099 14.1651C14.3945 13.3498 12.8614 12.5 9.99999 12.5C7.1386 12.5 5.60544 13.3498 4.79012 14.1651C3.94219 15.0131 3.75178 15.9372 3.75 16.2456H16.25Z" stroke="#171717" stroke-width="0.5"/>
</svg>
