<svg width="14" height="14" viewBox="0 0 14 14" fill="none" xmlns="http://www.w3.org/2000/svg">
<path d="M7 13.125C3.61726 13.125 0.875 10.3827 0.875 7C0.875 3.61726 3.61726 0.875 7 0.875C10.3827 0.875 13.125 3.61726 13.125 7C13.125 10.3827 10.3827 13.125 7 13.125ZM7 14C10.866 14 14 10.866 14 7C14 3.13401 10.866 0 7 0C3.13401 0 0 3.13401 0 7C0 10.866 3.13401 14 7 14Z" fill="#171717"/>
<path d="M7 3.5C7.24162 3.5 7.4375 3.69588 7.4375 3.9375V6.5625H10.0625C10.3041 6.5625 10.5 6.75838 10.5 7C10.5 7.24162 10.3041 7.4375 10.0625 7.4375H7.4375V10.0625C7.4375 10.3041 7.24162 10.5 7 10.5C6.75838 10.5 6.5625 10.3041 6.5625 10.0625V7.4375H3.9375C3.69588 7.4375 3.5 7.24162 3.5 7C3.5 6.75838 3.69588 6.5625 3.9375 6.5625H6.5625V3.9375C6.5625 3.69588 6.75838 3.5 7 3.5Z" fill="#171717"/>
</svg>
