<?xml version="1.0" standalone="no"?>
<!DOCTYPE svg PUBLIC "-//W3C//DTD SVG 20010904//EN"
 "http://www.w3.org/TR/2001/REC-SVG-20010904/DTD/svg10.dtd">
<svg version="1.0" xmlns="http://www.w3.org/2000/svg"
 width="200.000000pt" height="200.000000pt" viewBox="0 0 200.000000 200.000000"
 preserveAspectRatio="xMidYMid meet">

<g transform="translate(0.000000,200.000000) scale(0.100000,-0.100000)"
fill="#F03B43" stroke="none">
<path d="M80 1000 l0 -920 920 0 920 0 0 920 0 920 -920 0 -920 0 0 -920z
m1795 0 l0 -875 -875 0 -875 0 -3 865 c-1 476 0 871 3 878 3 10 184 12 877 10
l873 -3 0 -875z"/>
<path d="M241 1728 c-29 -30 -29 -110 -1 -138 19 -19 33 -20 350 -20 l330 0 2
-262 3 -263 30 0 30 0 3 274 c2 244 1 276 -14 293 -16 17 -39 18 -351 18
l-334 0 3 28 3 27 345 5 345 5 0 25 0 25 -362 3 c-362 2 -362 2 -382 -20z"/>
<path d="M1037 1738 c-16 -12 -17 -39 -15 -348 l3 -335 380 0 380 0 3 334 c2
238 -1 338 -9 347 -17 21 -285 20 -293 -1 -15 -39 2 -45 120 -45 l114 0 0
-295 0 -295 -315 0 -315 0 0 295 0 294 123 3 122 3 0 25 0 25 -140 3 c-102 2
-145 -1 -158 -10z"/>
<path d="M1182 1543 c3 -25 7 -28 46 -31 l42 -3 0 -109 0 -109 -42 -3 c-38 -3
-43 -6 -43 -28 l0 -25 217 -3 c209 -2 217 -2 223 18 9 30 -2 40 -46 40 l-39 0
0 109 0 110 43 3 c37 3 42 6 42 28 l0 25 -223 3 -223 2 3 -27z m296 -140 l-3
-108 -70 0 -70 0 -3 108 -3 107 76 0 76 0 -3 -107z"/>
<path d="M753 1493 c-9 -3 -13 -29 -13 -79 l0 -73 -147 -3 c-145 -3 -148 -3
-151 -25 -3 -23 -3 -23 147 -23 l150 0 3 -122 3 -123 28 -3 27 -3 0 224 c0
196 -2 226 -16 231 -9 3 -16 6 -17 5 -1 0 -8 -3 -14 -6z"/>
<path d="M245 1465 c-24 -23 -25 -29 -25 -168 0 -80 5 -158 11 -176 13 -38 54
-61 108 -61 33 0 49 8 98 50 85 73 149 66 174 -21 10 -31 14 -37 21 -24 14 23
-1 101 -23 121 -11 10 -41 19 -72 22 -50 4 -55 2 -110 -43 -49 -39 -63 -46
-94 -43 -35 3 -38 6 -46 43 -12 59 -5 241 11 257 9 9 60 14 177 16 l165 3 0
25 0 24 -185 0 c-184 0 -186 0 -210 -25z"/>
<path d="M1041 968 c-29 -30 -29 -110 -1 -138 19 -19 33 -20 350 -20 l330 0 0
-155 0 -154 -112 -3 c-109 -3 -113 -4 -116 -25 -3 -23 -3 -23 135 -23 95 0
143 4 151 12 8 8 12 66 12 194 0 153 -3 185 -16 198 -13 14 -59 16 -350 16
l-335 0 3 28 3 27 345 5 345 5 0 25 0 25 -362 3 c-362 2 -362 2 -382 -20z"/>
<path d="M222 953 l3 -28 168 -3 167 -2 0 -40 0 -40 -153 0 c-186 0 -187 -1
-187 -103 0 -97 3 -98 226 -95 l179 3 3 28 3 27 -170 0 -171 0 -6 25 c-13 53
-7 55 156 55 85 0 160 5 171 10 16 9 19 22 19 88 0 47 -5 83 -12 90 -9 9 -68
12 -206 12 l-193 0 3 -27z"/>
<path d="M734 965 c-11 -28 7 -35 90 -35 92 0 106 -8 106 -57 l0 -33 -83 0
c-115 0 -117 -3 -117 -153 l0 -117 -177 -2 -178 -3 0 -25 0 -25 205 0 205 0 3
127 c3 146 6 151 90 146 l47 -3 3 -253 2 -253 28 3 27 3 3 329 c2 296 1 331
-14 348 -15 15 -33 18 -126 18 -86 0 -110 -3 -114 -15z"/>
<path d="M1078 735 c-30 -17 -58 -62 -58 -94 0 -12 13 -35 29 -53 l29 -33 227
0 227 0 29 33 c38 42 38 82 0 124 l-29 33 -214 2 c-175 2 -218 0 -240 -12z
m437 -65 c17 -19 17 -21 0 -40 -17 -19 -31 -20 -210 -20 -197 0 -215 3 -215
42 0 32 32 37 221 38 173 0 187 -1 204 -20z"/>
<path d="M225 558 c-3 -8 -4 -72 -3 -144 l3 -129 110 0 110 0 3 42 c3 37 7 42
31 48 38 8 145 -18 254 -61 94 -38 111 -36 105 11 -5 34 -248 105 -359 105
-71 0 -89 -12 -89 -60 l0 -40 -55 0 -54 0 -3 118 c-3 113 -4 117 -26 120 -12
2 -24 -3 -27 -10z"/>
<path d="M1022 393 l3 -108 110 0 110 0 3 40 c2 22 7 43 11 48 4 4 119 -15
256 -42 181 -36 253 -47 262 -39 15 12 17 34 4 42 -7 5 -399 83 -495 99 -33 5
-76 -8 -88 -26 -4 -7 -8 -27 -8 -44 l0 -33 -55 0 -55 0 0 85 0 85 -30 0 -31 0
3 -107z"/>
</g>
</svg>
