<svg width="10" height="12" viewBox="0 0 10 12" fill="none" xmlns="http://www.w3.org/2000/svg">
<path d="M3.07692 4.4C3.28934 4.4 3.46154 4.57909 3.46154 4.8V9.6C3.46154 9.82091 3.28934 10 3.07692 10C2.86451 10 2.69231 9.82091 2.69231 9.6V4.8C2.69231 4.57909 2.86451 4.4 3.07692 4.4Z" fill="#171717"/>
<path d="M5 4.4C5.21242 4.4 5.38462 4.57909 5.38462 4.8V9.6C5.38462 9.82091 5.21242 10 5 10C4.78758 10 4.61538 9.82091 4.61538 9.6V4.8C4.61538 4.57909 4.78758 4.4 5 4.4Z" fill="#171717"/>
<path d="M7.30769 4.8C7.30769 4.57909 7.13549 4.4 6.92308 4.4C6.71066 4.4 6.53846 4.57909 6.53846 4.8V9.6C6.53846 9.82091 6.71066 10 6.92308 10C7.13549 10 7.30769 9.82091 7.30769 9.6V4.8Z" fill="#171717"/>
<path fill-rule="evenodd" clip-rule="evenodd" d="M10 2.4C10 2.84183 9.6556 3.2 9.23077 3.2H8.84615V10.4C8.84615 11.2837 8.15736 12 7.30769 12H2.69231C1.84264 12 1.15385 11.2837 1.15385 10.4V3.2H0.769231C0.344396 3.2 0 2.84183 0 2.4V1.6C0 1.15817 0.344396 0.8 0.769231 0.8H3.46154C3.46154 0.358172 3.80594 0 4.23077 0H5.76923C6.19407 0 6.53846 0.358172 6.53846 0.8H9.23077C9.6556 0.8 10 1.15817 10 1.6V2.4ZM2.01387 3.2L1.92308 3.24721V10.4C1.92308 10.8418 2.26747 11.2 2.69231 11.2H7.30769C7.73253 11.2 8.07692 10.8418 8.07692 10.4V3.24721L7.98613 3.2H2.01387ZM0.769231 2.4V1.6H9.23077V2.4H0.769231Z" fill="#171717"/>
</svg>
